<svg width="171" height="40" fill="none" xmlns="http://www.w3.org/2000/svg"><path d="M12.681 8.88c1.748 0 3.396.324 4.946.972 1.55.62 2.889 1.48 4.016 2.58a11.904 11.904 0 012.705 3.847 11.068 11.068 0 011.015 4.694c0 .394-.029.775-.085 1.141-.028.338-.07.69-.127 1.057H6.721a6.86 6.86 0 002.283 3.002c1.07.762 2.296 1.142 3.677 1.142a6.083 6.083 0 002.833-.677 6.347 6.347 0 002.155-1.775h7.017a11.822 11.822 0 01-1.817 3.298 11.582 11.582 0 01-2.748 2.621 13.1 13.1 0 01-3.466 1.65c-1.24.422-2.565.633-3.974.633-1.747 0-3.395-.31-4.945-.93-1.55-.648-2.903-1.522-4.058-2.621a12.83 12.83 0 01-2.706-3.848A11.476 11.476 0 010 20.972c0-1.663.324-3.227.972-4.693a12.831 12.831 0 012.706-3.848 12.624 12.624 0 014.058-2.579 12.685 12.685 0 014.945-.973zm5.96 9.894a6.487 6.487 0 00-2.324-2.96c-1.071-.79-2.283-1.184-3.636-1.184-1.38 0-2.606.395-3.677 1.184a6.588 6.588 0 00-2.283 2.96h11.92zm9.579 2.199c0-1.664.267-3.228.802-4.694.536-1.466 1.297-2.748 2.283-3.848.986-1.1 2.184-1.959 3.593-2.579 1.41-.648 2.987-.973 4.734-.973 1.663 0 3.199.353 4.608 1.058a10.466 10.466 0 013.635 2.79 10.576 10.576 0 013.593-2.79c1.438-.705 2.988-1.058 4.65-1.058 1.747 0 3.326.325 4.735.973 1.409.62 2.606 1.48 3.593 2.58.986 1.099 1.747 2.381 2.282 3.847.536 1.466.803 3.03.803 4.694v11.416h-6.34V20.972c0-.873-.099-1.69-.296-2.452-.197-.79-.507-1.466-.93-2.03a4.687 4.687 0 00-1.606-1.353c-.62-.338-1.367-.507-2.24-.507-.874 0-1.635.17-2.283.507-.62.339-1.142.79-1.564 1.354-.423.563-.733 1.24-.93 2.03a9.751 9.751 0 00-.296 2.451V32.39h-6.341V20.972c0-.873-.099-1.69-.296-2.452-.197-.79-.507-1.466-.93-2.03a4.688 4.688 0 00-1.606-1.353c-.62-.338-1.367-.507-2.24-.507-.874 0-1.635.17-2.283.507-.62.339-1.142.79-1.564 1.354-.423.563-.733 1.24-.93 2.03a9.746 9.746 0 00-.296 2.451V32.39h-6.34V20.972zM83.87 8.88c1.748 0 3.382.324 4.904.972a12.24 12.24 0 013.974 2.58 12.225 12.225 0 012.663 3.847 11.067 11.067 0 011.014 4.694c0 1.663-.338 3.227-1.014 4.693a12.225 12.225 0 01-2.663 3.848 12.83 12.83 0 01-3.974 2.621c-1.522.62-3.156.93-4.903.93a8.73 8.73 0 01-3.424-.676 9.297 9.297 0 01-2.79-1.86V40h-6.34V20.973c0-1.664.323-3.228.971-4.694a12.83 12.83 0 012.706-3.848 12.244 12.244 0 013.973-2.579 12.58 12.58 0 014.904-.973zm-.126 18.435c.873 0 1.69-.17 2.451-.507a6.396 6.396 0 002.03-1.354 6.532 6.532 0 001.352-1.987 6.27 6.27 0 00.507-2.494 5.97 5.97 0 00-.507-2.453 6.4 6.4 0 00-1.352-2.03 6.396 6.396 0 00-2.03-1.353 5.967 5.967 0 00-2.451-.507c-.874 0-1.705.17-2.494.507a6.53 6.53 0 00-1.987 1.354 6.398 6.398 0 00-1.353 2.03 5.97 5.97 0 00-.507 2.451c0 .874.17 1.706.507 2.495a6.53 6.53 0 001.353 1.988 6.53 6.53 0 001.987 1.353c.789.338 1.62.507 2.494.507zm15.436-6.342c0-1.664.282-3.228.846-4.694a12.142 12.142 0 012.451-3.848 11.162 11.162 0 013.72-2.579c1.466-.648 3.072-.973 4.819-.973h.846v5.751c-.874 0-1.705.17-2.494.507a6.535 6.535 0 00-1.987 1.354 6.39 6.39 0 00-1.353 2.03 5.974 5.974 0 00-.507 2.451V32.39h-6.34V20.972zM118.175 0c.507 0 .972.099 1.395.296a3.34 3.34 0 011.141.803c.338.31.606.691.803 1.142.198.423.296.888.296 1.395 0 .508-.098.987-.296 1.438a3.99 3.99 0 01-.803 1.142 3.34 3.34 0 01-1.141.803c-.423.17-.888.254-1.395.254-1.015 0-1.874-.353-2.579-1.057-.704-.705-1.056-1.565-1.056-2.58 0-.507.084-.972.253-1.395.198-.451.465-.832.803-1.142a4.003 4.003 0 011.142-.803c.451-.197.93-.296 1.437-.296zm-3.17 9.556h6.34v22.833h-6.34V9.556zm21.836 9.387a9.172 9.172 0 012.452.592 7.15 7.15 0 012.156 1.268 6.198 6.198 0 011.564 1.945c.394.733.591 1.579.591 2.537 0 1.212-.253 2.312-.761 3.299a7.516 7.516 0 01-2.071 2.452c-.845.648-1.832 1.142-2.959 1.48a11.03 11.03 0 01-3.508.55 11.28 11.28 0 01-3.509-.55 9.638 9.638 0 01-3.001-1.48 7.755 7.755 0 01-2.029-2.453c-.507-.986-.761-2.085-.761-3.298h6.341c0 .959.31 1.607.93 1.945a4.327 4.327 0 002.029.508 3.84 3.84 0 001.986-.55c.649-.366.973-.916.973-1.649 0-.536-.31-1.015-.93-1.438-.62-.422-1.409-.704-2.367-.845a14.826 14.826 0 01-3.255-.804 11.907 11.907 0 01-2.79-1.48 8.29 8.29 0 01-1.945-2.03 4.806 4.806 0 01-.718-2.536c0-1.156.239-2.199.718-3.129a7.193 7.193 0 011.945-2.368 9.174 9.174 0 012.916-1.48c1.1-.366 2.255-.55 3.467-.55 1.24 0 2.395.184 3.466.55 1.099.338 2.057.846 2.874 1.522a6.86 6.86 0 011.987 2.41c.479.959.719 2.058.719 3.299h-6.341c0-.48-.084-.874-.254-1.184-.14-.339-.338-.592-.591-.761a1.943 1.943 0 00-.888-.381 3.68 3.68 0 00-.972-.127c-.705 0-1.339.155-1.903.465-.535.282-.803.804-.803 1.565 0 .338.155.662.465.972.31.282.719.55 1.226.804a11.99 11.99 0 001.691.592c.62.14 1.24.253 1.86.338zM158.319 8.88c1.747 0 3.395.324 4.945.972 1.55.62 2.889 1.48 4.016 2.58a11.909 11.909 0 012.706 3.847A11.072 11.072 0 01171 20.973c0 .394-.028.775-.085 1.141-.028.338-.07.69-.126 1.057h-18.431a6.859 6.859 0 002.283 3.002c1.071.762 2.297 1.142 3.678 1.142a6.086 6.086 0 002.832-.677 6.357 6.357 0 002.156-1.775h7.017a11.83 11.83 0 01-1.818 3.298 11.581 11.581 0 01-2.748 2.621 13.09 13.09 0 01-3.466 1.65c-1.24.422-2.564.633-3.973.633-1.748 0-3.396-.31-4.946-.93-1.55-.648-2.903-1.522-4.058-2.621a12.828 12.828 0 01-2.705-3.848 11.463 11.463 0 01-.973-4.694c0-1.663.324-3.227.973-4.693a12.828 12.828 0 012.705-3.848 12.618 12.618 0 014.058-2.579 12.684 12.684 0 014.946-.973zm5.96 9.894a6.485 6.485 0 00-2.325-2.96c-1.071-.79-2.283-1.184-3.635-1.184-1.381 0-2.607.395-3.678 1.184a6.586 6.586 0 00-2.283 2.96h11.921z" fill="#fff"/></svg>